{
  "asset": {
    "generator": "Khronos glTF Blender I/O v1.6.16",
    "version": "2.0"
  },
  "scene": 0,
  "scenes": [
    {
      "name": "Scene",
      "nodes": [
        0
      ]
    }
  ],
  "nodes": [
    {
      "mesh": 0,
      "name": "Forest",
      "rotation": [
        0,
        0,
        0,
        1
      ],
      "scale": [
        1,
        1,
        1
      ],
      "translation": [
        0,
        0,
        0
      ]
    }
  ],
  "materials": [
    {
      "doubleSided": true,
      "name": "Ground",
      "pbrMetallicRoughness": {
        "baseColorFactor": [
          0.2901960784313726,
          0.5607843137254902,
          0.24313725490196078,
          1
        ],
        "metallicFactor": 0.1,
        "roughnessFactor": 0.9
      }
    },
    {
      "doubleSided": true,
      "name": "TreeTrunk",
      "pbrMetallicRoughness": {
        "baseColorFactor": [
          0.5450980392156862,
          0.27058823529411763,
          0.07450980392156863,
          1
        ],
        "metallicFactor": 0.1,
        "roughnessFactor": 0.9
      }
    },
    {
      "doubleSided": true,
      "name": "TreeLeaves",
      "pbrMetallicRoughness": {
        "baseColorFactor": [
          0.17647058823529413,
          0.4117647058823529,
          0.12549019607843137,
          1
        ],
        "metallicFactor": 0.1,
        "roughnessFactor": 0.8
      }
    },
    {
      "doubleSided": true,
      "name": "Water",
      "pbrMetallicRoughness": {
        "baseColorFactor": [
          0.12941176470588237,
          0.5882352941176471,
          0.9529411764705882,
          0.8
        ],
        "metallicFactor": 0.3,
        "roughnessFactor": 0.4
      },
      "alphaMode": "BLEND"
    }
  ],
  "meshes": [
    {
      "name": "Forest",
      "primitives": [
        {
          "attributes": {
            "POSITION": 0,
            "NORMAL": 1,
            "TEXCOORD_0": 2
          },
          "indices": 3,
          "material": 0
        },
        {
          "attributes": {
            "POSITION": 4,
            "NORMAL": 5,
            "TEXCOORD_0": 6
          },
          "indices": 7,
          "material": 1
        },
        {
          "attributes": {
            "POSITION": 8,
            "NORMAL": 9,
            "TEXCOORD_0": 10
          },
          "indices": 11,
          "material": 2
        },
        {
          "attributes": {
            "POSITION": 12,
            "NORMAL": 13,
            "TEXCOORD_0": 14
          },
          "indices": 15,
          "material": 3
        }
      ]
    }
  ],
  "accessors": [
    {
      "bufferView": 0,
      "componentType": 5126,
      "count": 1024,
      "max": [
        10,
        1,
        10
      ],
      "min": [
        -10,
        -1,
        -10
      ],
      "type": "VEC3"
    },
    {
      "bufferView": 1,
      "componentType": 5126,
      "count": 1024,
      "type": "VEC3"
    },
    {
      "bufferView": 2,
      "componentType": 5126,
      "count": 1024,
      "type": "VEC2"
    },
    {
      "bufferView": 3,
      "componentType": 5123,
      "count": 4608,
      "type": "SCALAR"
    },
    {
      "bufferView": 4,
      "componentType": 5126,
      "count": 1024,
      "max": [
        9,
        5,
        9
      ],
      "min": [
        -9,
        0,
        -9
      ],
      "type": "VEC3"
    },
    {
      "bufferView": 5,
      "componentType": 5126,
      "count": 1024,
      "type": "VEC3"
    },
    {
      "bufferView": 6,
      "componentType": 5126,
      "count": 1024,
      "type": "VEC2"
    },
    {
      "bufferView": 7,
      "componentType": 5123,
      "count": 4608,
      "type": "SCALAR"
    },
    {
      "bufferView": 8,
      "componentType": 5126,
      "count": 2048,
      "max": [
        9,
        10,
        9
      ],
      "min": [
        -9,
        2,
        -9
      ],
      "type": "VEC3"
    },
    {
      "bufferView": 9,
      "componentType": 5126,
      "count": 2048,
      "type": "VEC3"
    },
    {
      "bufferView": 10,
      "componentType": 5126,
      "count": 2048,
      "type": "VEC2"
    },
    {
      "bufferView": 11,
      "componentType": 5123,
      "count": 9216,
      "type": "SCALAR"
    },
    {
      "bufferView": 12,
      "componentType": 5126,
      "count": 128,
      "max": [
        3,
        0.1,
        3
      ],
      "min": [
        -3,
        0,
        -3
      ],
      "type": "VEC3"
    },
    {
      "bufferView": 13,
      "componentType": 5126,
      "count": 128,
      "type": "VEC3"
    },
    {
      "bufferView": 14,
      "componentType": 5126,
      "count": 128,
      "type": "VEC2"
    },
    {
      "bufferView": 15,
      "componentType": 5123,
      "count": 384,
      "type": "SCALAR"
    }
  ],
  "bufferViews": [
    {
      "buffer": 0,
      "byteLength": 12288,
      "byteOffset": 0
    },
    {
      "buffer": 0,
      "byteLength": 12288,
      "byteOffset": 12288
    },
    {
      "buffer": 0,
      "byteLength": 8192,
      "byteOffset": 24576
    },
    {
      "buffer": 0,
      "byteLength": 9216,
      "byteOffset": 32768
    },
    {
      "buffer": 0,
      "byteLength": 12288,
      "byteOffset": 41984
    },
    {
      "buffer": 0,
      "byteLength": 12288,
      "byteOffset": 54272
    },
    {
      "buffer": 0,
      "byteLength": 8192,
      "byteOffset": 66560
    },
    {
      "buffer": 0,
      "byteLength": 9216,
      "byteOffset": 74752
    },
    {
      "buffer": 0,
      "byteLength": 24576,
      "byteOffset": 83968
    },
    {
      "buffer": 0,
      "byteLength": 24576,
      "byteOffset": 108544
    },
    {
      "buffer": 0,
      "byteLength": 16384,
      "byteOffset": 133120
    },
    {
      "buffer": 0,
      "byteLength": 18432,
      "byteOffset": 149504
    },
    {
      "buffer": 0,
      "byteLength": 1536,
      "byteOffset": 167936
    },
    {
      "buffer": 0,
      "byteLength": 1536,
      "byteOffset": 169472
    },
    {
      "buffer": 0,
      "byteLength": 1024,
      "byteOffset": 171008
    },
    {
      "buffer": 0,
      "byteLength": 768,
      "byteOffset": 172032
    }
  ],
  "buffers": [
    {
      "byteLength": 172800,
      "uri": "data.bin"
    }
  ]
}
